# xmcd
#
# Track frame offsets: 
#        150
#        11522
#        25662
#        41787
#        56295
#        77112
#        92942
#        107292
#        123977
#        140705
#        156825
#
# Disc length: 2311 seconds
#
# Revision: 10
# Processed by: cddbd v1.5.2PL0 Copyright (c) Steve Scherf et al.
# Submitted via: ExactAudioCopy v0.99pb5
#
DISCID=8409050b
DTITLE=Alabama - In Pictures
DYEAR=1995
DGENRE=Country
TTITLE0=Sunday Drive
TTITLE1=She Ain't Your Ordinary Girl
TTITLE2=My Love Belongs To You
TTITLE3=I've Loved A Lot More Than I've Hurt
TTITLE4=Spin The Wheel
TTITLE5=Nothing Comes Close
TTITLE6=Say I
TTITLE7=It Works
TTITLE8=The Maker Said Take Her
TTITLE9=In Pictures
TTITLE10=Heartbreak Express
EXTD=more info\nMillenniumMusicProjectFormat, syntax as follows:\nTitl
EXTD=e{Subtitle}[info](Lyricist;Composer;Date,Artist,Location)[info]\n
EXTD=corrections to: windking3@yahoo.com YEAR: 1995
EXTT0=
EXTT1=
EXTT2=
EXTT3=
EXTT4=
EXTT5=
EXTT6=
EXTT7=
EXTT8=
EXTT9=
EXTT10=
PLAYORDER=
